#define icon_width 10
#define icon_height 10
static const unsigned char icon_bits[] = {
  0x3c, 0x00, //   ****
  0x42, 0x00, //  *    *
  0x81, 0x00, // *      *
  0x81, 0x00, // *      *
  0xa5, 0x00, // * *  * *
  0x81, 0x00, // *      *
  0x81, 0x00, // *      *
  0x42, 0x00, //  *    *
  0x3c, 0x00, //   ****
  0x00, 0x00  //
};